<svg xmlns="http://www.w3.org/2000/svg" viewBox="0 0 800 600" width="800" height="600">
        <defs>
          <linearGradient id="bg" x1="0%" y1="0%" x2="100%" y2="100%">
            <stop offset="0%" style="stop-color:#0a0a0a;stop-opacity:1" />
            <stop offset="50%" style="stop-color:#0f0f0f;stop-opacity:1" />
            <stop offset="100%" style="stop-color:#0a0a0a;stop-opacity:1" />
          </linearGradient>
          <linearGradient id="green" x1="0%" y1="0%" x2="100%" y2="0%">
            <stop offset="0%" style="stop-color:#10b981;stop-opacity:1" />
            <stop offset="100%" style="stop-color:#059669;stop-opacity:1" />
          </linearGradient>
          <linearGradient id="hexGreen" x1="0%" y1="0%" x2="100%" y2="100%">
            <stop offset="0%" style="stop-color:#10b981;stop-opacity:1" />
            <stop offset="100%" style="stop-color:#047857;stop-opacity:1" />
          </linearGradient>
          <filter id="glow">
            <feGaussianBlur stdDeviation="2" result="coloredBlur"/>
            <feMerge>
              <feMergeNode in="coloredBlur"/>
              <feMergeNode in="SourceGraphic"/>
            </feMerge>
          </filter>
          <filter id="nodeGlow">
            <feGaussianBlur stdDeviation="4" result="coloredBlur"/>
            <feMerge>
              <feMergeNode in="coloredBlur"/>
              <feMergeNode in="SourceGraphic"/>
            </feMerge>
          </filter>
        </defs>
        
        <!-- Background -->
        <rect width="800" height="600" fill="url(#bg)"/>
        
        <!-- Floating DAG Structure Background -->
        <g opacity="0.4">
          <line x1="60" y1="80" x2="120" y2="50" stroke="#10b981" stroke-width="1" opacity="0.3"/><line x1="120" y1="50" x2="150" y2="100" stroke="#10b981" stroke-width="1" opacity="0.3"/><line x1="60" y1="80" x2="90" y2="130" stroke="#10b981" stroke-width="1" opacity="0.3"/><line x1="90" y1="130" x2="150" y2="100" stroke="#10b981" stroke-width="1" opacity="0.3"/><line x1="680" y1="60" x2="740" y2="90" stroke="#10b981" stroke-width="1" opacity="0.3"/><line x1="740" y1="90" x2="650" y2="110" stroke="#10b981" stroke-width="1" opacity="0.3"/><line x1="680" y1="60" x2="700" y2="140" stroke="#10b981" stroke-width="1" opacity="0.3"/><line x1="700" y1="140" x2="650" y2="110" stroke="#10b981" stroke-width="1" opacity="0.3"/><line x1="70" y1="480" x2="130" y2="520" stroke="#10b981" stroke-width="1" opacity="0.3"/><line x1="130" y1="520" x2="160" y2="490" stroke="#10b981" stroke-width="1" opacity="0.3"/><line x1="70" y1="480" x2="100" y2="550" stroke="#10b981" stroke-width="1" opacity="0.3"/><line x1="100" y1="550" x2="160" y2="490" stroke="#10b981" stroke-width="1" opacity="0.3"/><line x1="690" y1="470" x2="730" y2="510" stroke="#10b981" stroke-width="1" opacity="0.3"/><line x1="730" y1="510" x2="650" y2="530" stroke="#10b981" stroke-width="1" opacity="0.3"/><line x1="690" y1="470" x2="710" y2="560" stroke="#10b981" stroke-width="1" opacity="0.3"/><line x1="710" y1="560" x2="650" y2="530" stroke="#10b981" stroke-width="1" opacity="0.3"/><line x1="50" y1="250" x2="80" y2="320" stroke="#10b981" stroke-width="1" opacity="0.3"/><line x1="80" y1="320" x2="45" y2="380" stroke="#10b981" stroke-width="1" opacity="0.3"/><line x1="750" y1="260" x2="720" y2="330" stroke="#10b981" stroke-width="1" opacity="0.3"/><line x1="720" y1="330" x2="760" y2="400" stroke="#10b981" stroke-width="1" opacity="0.3"/><line x1="90" y1="130" x2="50" y2="250" stroke="#10b981" stroke-width="1" opacity="0.3"/><line x1="700" y1="140" x2="750" y2="260" stroke="#10b981" stroke-width="1" opacity="0.3"/><line x1="100" y1="550" x2="45" y2="380" stroke="#10b981" stroke-width="1" opacity="0.3"/><line x1="710" y1="560" x2="760" y2="400" stroke="#10b981" stroke-width="1" opacity="0.3"/><circle cx="60" cy="80" r="12" fill="#10b981" opacity="0.1"/><circle cx="60" cy="80" r="4" fill="#10b981" opacity="0.6"/><circle cx="60" cy="80" r="1.6" fill="#ffffff" opacity="0.4"/><circle cx="120" cy="50" r="9" fill="#10b981" opacity="0.1"/><circle cx="120" cy="50" r="3" fill="#10b981" opacity="0.6"/><circle cx="120" cy="50" r="1.2000000000000002" fill="#ffffff" opacity="0.4"/><circle cx="90" cy="130" r="15" fill="#10b981" opacity="0.1"/><circle cx="90" cy="130" r="5" fill="#10b981" opacity="0.6"/><circle cx="90" cy="130" r="2" fill="#ffffff" opacity="0.4"/><circle cx="150" cy="100" r="9" fill="#10b981" opacity="0.1"/><circle cx="150" cy="100" r="3" fill="#10b981" opacity="0.6"/><circle cx="150" cy="100" r="1.2000000000000002" fill="#ffffff" opacity="0.4"/><circle cx="680" cy="60" r="12" fill="#10b981" opacity="0.1"/><circle cx="680" cy="60" r="4" fill="#10b981" opacity="0.6"/><circle cx="680" cy="60" r="1.6" fill="#ffffff" opacity="0.4"/><circle cx="740" cy="90" r="9" fill="#10b981" opacity="0.1"/><circle cx="740" cy="90" r="3" fill="#10b981" opacity="0.6"/><circle cx="740" cy="90" r="1.2000000000000002" fill="#ffffff" opacity="0.4"/><circle cx="700" cy="140" r="15" fill="#10b981" opacity="0.1"/><circle cx="700" cy="140" r="5" fill="#10b981" opacity="0.6"/><circle cx="700" cy="140" r="2" fill="#ffffff" opacity="0.4"/><circle cx="650" cy="110" r="9" fill="#10b981" opacity="0.1"/><circle cx="650" cy="110" r="3" fill="#10b981" opacity="0.6"/><circle cx="650" cy="110" r="1.2000000000000002" fill="#ffffff" opacity="0.4"/><circle cx="70" cy="480" r="12" fill="#10b981" opacity="0.1"/><circle cx="70" cy="480" r="4" fill="#10b981" opacity="0.6"/><circle cx="70" cy="480" r="1.6" fill="#ffffff" opacity="0.4"/><circle cx="130" cy="520" r="9" fill="#10b981" opacity="0.1"/><circle cx="130" cy="520" r="3" fill="#10b981" opacity="0.6"/><circle cx="130" cy="520" r="1.2000000000000002" fill="#ffffff" opacity="0.4"/><circle cx="100" cy="550" r="15" fill="#10b981" opacity="0.1"/><circle cx="100" cy="550" r="5" fill="#10b981" opacity="0.6"/><circle cx="100" cy="550" r="2" fill="#ffffff" opacity="0.4"/><circle cx="160" cy="490" r="9" fill="#10b981" opacity="0.1"/><circle cx="160" cy="490" r="3" fill="#10b981" opacity="0.6"/><circle cx="160" cy="490" r="1.2000000000000002" fill="#ffffff" opacity="0.4"/><circle cx="690" cy="470" r="12" fill="#10b981" opacity="0.1"/><circle cx="690" cy="470" r="4" fill="#10b981" opacity="0.6"/><circle cx="690" cy="470" r="1.6" fill="#ffffff" opacity="0.4"/><circle cx="730" cy="510" r="9" fill="#10b981" opacity="0.1"/><circle cx="730" cy="510" r="3" fill="#10b981" opacity="0.6"/><circle cx="730" cy="510" r="1.2000000000000002" fill="#ffffff" opacity="0.4"/><circle cx="710" cy="560" r="15" fill="#10b981" opacity="0.1"/><circle cx="710" cy="560" r="5" fill="#10b981" opacity="0.6"/><circle cx="710" cy="560" r="2" fill="#ffffff" opacity="0.4"/><circle cx="650" cy="530" r="9" fill="#10b981" opacity="0.1"/><circle cx="650" cy="530" r="3" fill="#10b981" opacity="0.6"/><circle cx="650" cy="530" r="1.2000000000000002" fill="#ffffff" opacity="0.4"/><circle cx="50" cy="250" r="9" fill="#10b981" opacity="0.1"/><circle cx="50" cy="250" r="3" fill="#10b981" opacity="0.6"/><circle cx="50" cy="250" r="1.2000000000000002" fill="#ffffff" opacity="0.4"/><circle cx="80" cy="320" r="12" fill="#10b981" opacity="0.1"/><circle cx="80" cy="320" r="4" fill="#10b981" opacity="0.6"/><circle cx="80" cy="320" r="1.6" fill="#ffffff" opacity="0.4"/><circle cx="45" cy="380" r="9" fill="#10b981" opacity="0.1"/><circle cx="45" cy="380" r="3" fill="#10b981" opacity="0.6"/><circle cx="45" cy="380" r="1.2000000000000002" fill="#ffffff" opacity="0.4"/><circle cx="750" cy="260" r="9" fill="#10b981" opacity="0.1"/><circle cx="750" cy="260" r="3" fill="#10b981" opacity="0.6"/><circle cx="750" cy="260" r="1.2000000000000002" fill="#ffffff" opacity="0.4"/><circle cx="720" cy="330" r="12" fill="#10b981" opacity="0.1"/><circle cx="720" cy="330" r="4" fill="#10b981" opacity="0.6"/><circle cx="720" cy="330" r="1.6" fill="#ffffff" opacity="0.4"/><circle cx="760" cy="400" r="9" fill="#10b981" opacity="0.1"/><circle cx="760" cy="400" r="3" fill="#10b981" opacity="0.6"/><circle cx="760" cy="400" r="1.2000000000000002" fill="#ffffff" opacity="0.4"/>
        </g>
        
        <!-- Border -->
        <rect x="20" y="20" width="760" height="560" fill="none" stroke="url(#green)" stroke-width="2" rx="12"/>
        <rect x="28" y="28" width="744" height="544" fill="none" stroke="#1f2937" stroke-width="1" rx="10"/>
        
        <!-- KU Hexagon Logo -->
        <g transform="translate(400, 70)">
          <!-- Outer hexagon glow -->
          <polygon points="0,-42 36,-21 36,21 0,42 -36,21 -36,-21" fill="none" stroke="#10b981" stroke-width="3" opacity="0.3" filter="url(#nodeGlow)"/>
          <!-- Main hexagon -->
          <polygon points="0,-38 33,-19 33,19 0,38 -33,19 -33,-19" fill="#0a0a0a" stroke="url(#hexGreen)" stroke-width="2"/>
          <!-- Inner hexagon accent -->
          <polygon points="0,-28 24,-14 24,14 0,28 -24,14 -24,-14" fill="none" stroke="#10b981" stroke-width="1" opacity="0.5"/>
          <!-- KU Text -->
          <text x="0" y="8" text-anchor="middle" font-family="Arial Black, sans-serif" font-size="22" fill="url(#green)" font-weight="bold">KU</text>
        </g>
        
        <!-- Header -->
        <text x="400" y="135" text-anchor="middle" font-family="Arial, sans-serif" font-size="14" fill="#10b981" letter-spacing="4" font-weight="bold">
          KASPA UNIVERSITY
        </text>
        
        <!-- Certificate Title -->
        <text x="400" y="180" text-anchor="middle" font-family="Georgia, serif" font-size="36" fill="#ffffff" font-weight="bold" filter="url(#glow)">
          Certificate of Completion
        </text>
        
        <!-- Divider -->
        <line x1="150" y1="205" x2="650" y2="205" stroke="url(#green)" stroke-width="1" opacity="0.5"/>
        
        <!-- This certifies -->
        <text x="400" y="250" text-anchor="middle" font-family="Arial, sans-serif" font-size="16" fill="#9ca3af">
          This is to certify that
        </text>
        
        <!-- Recipient Address -->
        <text x="400" y="290" text-anchor="middle" font-family="monospace" font-size="18" fill="#10b981" font-weight="bold">
          kaspa:qrewk7...ueqwv2er
        </text>
        
        <!-- Has completed -->
        <text x="400" y="330" text-anchor="middle" font-family="Arial, sans-serif" font-size="16" fill="#9ca3af">
          has successfully completed the course
        </text>
        
        <!-- Course Name -->
        <text x="400" y="380" text-anchor="middle" font-family="Georgia, serif" font-size="28" fill="#ffffff" font-weight="bold">
          Introduction to Kaspa
        </text>
        
        <!-- Score Badge -->
        <rect x="340" y="405" width="120" height="40" rx="20" fill="#0a0a0a" stroke="url(#green)" stroke-width="1"/>
        <text x="400" y="432" text-anchor="middle" font-family="Arial, sans-serif" font-size="18" fill="#10b981" font-weight="bold">
          95% Score
        </text>
        
        <!-- Date -->
        <text x="400" y="485" text-anchor="middle" font-family="Arial, sans-serif" font-size="14" fill="#6b7280">
          Awarded on December 26, 2025
        </text>
        
        <!-- Verification Badge -->
        <rect x="280" y="515" width="240" height="30" rx="15" fill="#0d1f17" stroke="#10b981" stroke-width="1" opacity="0.8"/>
        <circle cx="300" cy="530" r="8" fill="#10b981"/>
        <text x="315" y="535" font-family="Arial, sans-serif" font-size="11" fill="#10b981">
          Verified on Kaspa Blockchain
        </text>
        
        <!-- Footer -->
        <text x="400" y="575" text-anchor="middle" font-family="Arial, sans-serif" font-size="10" fill="#4b5563">
          KRC-721 NFT Certificate | KPROOF Collection
        </text>
      </svg>